<mxfile host="app.diagrams.net" agent="Mozilla/5.0 (X11; Linux x86_64; rv:131.0) Gecko/20100101 Firefox/131.0" version="24.9.3">
  <diagram name="Page-1" id="GAbDCw8YWcUz2ZCjJpux">
    <mxGraphModel dx="880" dy="441" grid="1" gridSize="10" guides="1" tooltips="1" connect="1" arrows="1" fold="1" page="1" pageScale="1" pageWidth="2000" pageHeight="2000" math="0" shadow="0">
      <root>
        <mxCell id="0" />
        <mxCell id="1" parent="0" />
        <mxCell id="VwhprwL9eRUREX6yI_Sk-30" style="edgeStyle=orthogonalEdgeStyle;rounded=0;orthogonalLoop=1;jettySize=auto;html=1;exitX=0.5;exitY=1;exitDx=0;exitDy=0;entryX=0.5;entryY=0;entryDx=0;entryDy=0;" edge="1" parent="1" source="VwhprwL9eRUREX6yI_Sk-1" target="VwhprwL9eRUREX6yI_Sk-3">
          <mxGeometry relative="1" as="geometry" />
        </mxCell>
        <mxCell id="VwhprwL9eRUREX6yI_Sk-1" value="Start" style="ellipse;whiteSpace=wrap;html=1;" vertex="1" parent="1">
          <mxGeometry x="40" width="120" height="80" as="geometry" />
        </mxCell>
        <mxCell id="VwhprwL9eRUREX6yI_Sk-31" style="edgeStyle=orthogonalEdgeStyle;rounded=0;orthogonalLoop=1;jettySize=auto;html=1;exitX=0.5;exitY=1;exitDx=0;exitDy=0;entryX=0.5;entryY=0;entryDx=0;entryDy=0;" edge="1" parent="1" source="VwhprwL9eRUREX6yI_Sk-3" target="VwhprwL9eRUREX6yI_Sk-4">
          <mxGeometry relative="1" as="geometry" />
        </mxCell>
        <mxCell id="VwhprwL9eRUREX6yI_Sk-3" value="enter n" style="shape=parallelogram;perimeter=parallelogramPerimeter;whiteSpace=wrap;html=1;fixedSize=1;" vertex="1" parent="1">
          <mxGeometry x="40" y="120" width="120" height="60" as="geometry" />
        </mxCell>
        <mxCell id="VwhprwL9eRUREX6yI_Sk-32" style="edgeStyle=orthogonalEdgeStyle;rounded=0;orthogonalLoop=1;jettySize=auto;html=1;exitX=0.5;exitY=1;exitDx=0;exitDy=0;entryX=0.5;entryY=0;entryDx=0;entryDy=0;" edge="1" parent="1" source="VwhprwL9eRUREX6yI_Sk-4" target="VwhprwL9eRUREX6yI_Sk-5">
          <mxGeometry relative="1" as="geometry" />
        </mxCell>
        <mxCell id="VwhprwL9eRUREX6yI_Sk-4" value="i = 0" style="rounded=0;whiteSpace=wrap;html=1;" vertex="1" parent="1">
          <mxGeometry x="40" y="220" width="120" height="60" as="geometry" />
        </mxCell>
        <mxCell id="VwhprwL9eRUREX6yI_Sk-8" value="y" style="edgeStyle=orthogonalEdgeStyle;rounded=0;orthogonalLoop=1;jettySize=auto;html=1;exitX=0.5;exitY=1;exitDx=0;exitDy=0;entryX=0.5;entryY=0;entryDx=0;entryDy=0;" edge="1" parent="1" source="VwhprwL9eRUREX6yI_Sk-5" target="VwhprwL9eRUREX6yI_Sk-6">
          <mxGeometry relative="1" as="geometry" />
        </mxCell>
        <mxCell id="VwhprwL9eRUREX6yI_Sk-5" value="i &amp;lt; n?" style="rhombus;whiteSpace=wrap;html=1;" vertex="1" parent="1">
          <mxGeometry x="60" y="320" width="80" height="80" as="geometry" />
        </mxCell>
        <mxCell id="VwhprwL9eRUREX6yI_Sk-9" style="edgeStyle=orthogonalEdgeStyle;rounded=0;orthogonalLoop=1;jettySize=auto;html=1;exitX=0.5;exitY=1;exitDx=0;exitDy=0;entryX=0.5;entryY=0;entryDx=0;entryDy=0;" edge="1" parent="1" source="VwhprwL9eRUREX6yI_Sk-6" target="VwhprwL9eRUREX6yI_Sk-7">
          <mxGeometry relative="1" as="geometry" />
        </mxCell>
        <mxCell id="VwhprwL9eRUREX6yI_Sk-6" value="enter a[i]" style="shape=parallelogram;perimeter=parallelogramPerimeter;whiteSpace=wrap;html=1;fixedSize=1;" vertex="1" parent="1">
          <mxGeometry x="40" y="420" width="120" height="60" as="geometry" />
        </mxCell>
        <mxCell id="VwhprwL9eRUREX6yI_Sk-10" style="edgeStyle=orthogonalEdgeStyle;rounded=0;orthogonalLoop=1;jettySize=auto;html=1;exitX=0;exitY=0.5;exitDx=0;exitDy=0;entryX=0;entryY=0.5;entryDx=0;entryDy=0;" edge="1" parent="1" source="VwhprwL9eRUREX6yI_Sk-7" target="VwhprwL9eRUREX6yI_Sk-5">
          <mxGeometry relative="1" as="geometry" />
        </mxCell>
        <mxCell id="VwhprwL9eRUREX6yI_Sk-7" value="i++" style="rounded=0;whiteSpace=wrap;html=1;" vertex="1" parent="1">
          <mxGeometry x="40" y="520" width="120" height="60" as="geometry" />
        </mxCell>
        <mxCell id="VwhprwL9eRUREX6yI_Sk-28" style="edgeStyle=orthogonalEdgeStyle;rounded=0;orthogonalLoop=1;jettySize=auto;html=1;exitX=0.5;exitY=1;exitDx=0;exitDy=0;entryX=0.5;entryY=0;entryDx=0;entryDy=0;" edge="1" parent="1" source="VwhprwL9eRUREX6yI_Sk-11" target="VwhprwL9eRUREX6yI_Sk-12">
          <mxGeometry relative="1" as="geometry" />
        </mxCell>
        <mxCell id="VwhprwL9eRUREX6yI_Sk-11" value="enter x" style="shape=parallelogram;perimeter=parallelogramPerimeter;whiteSpace=wrap;html=1;fixedSize=1;" vertex="1" parent="1">
          <mxGeometry x="40" y="620" width="120" height="60" as="geometry" />
        </mxCell>
        <mxCell id="VwhprwL9eRUREX6yI_Sk-29" style="edgeStyle=orthogonalEdgeStyle;rounded=0;orthogonalLoop=1;jettySize=auto;html=1;exitX=0.5;exitY=1;exitDx=0;exitDy=0;entryX=0.5;entryY=0;entryDx=0;entryDy=0;" edge="1" parent="1" source="VwhprwL9eRUREX6yI_Sk-12" target="VwhprwL9eRUREX6yI_Sk-13">
          <mxGeometry relative="1" as="geometry" />
        </mxCell>
        <mxCell id="VwhprwL9eRUREX6yI_Sk-12" value="sort a by descending" style="shape=process;whiteSpace=wrap;html=1;backgroundOutline=1;" vertex="1" parent="1">
          <mxGeometry x="40" y="720" width="120" height="60" as="geometry" />
        </mxCell>
        <mxCell id="VwhprwL9eRUREX6yI_Sk-27" style="edgeStyle=orthogonalEdgeStyle;rounded=0;orthogonalLoop=1;jettySize=auto;html=1;exitX=0.5;exitY=1;exitDx=0;exitDy=0;entryX=0.5;entryY=0;entryDx=0;entryDy=0;" edge="1" parent="1" source="VwhprwL9eRUREX6yI_Sk-13" target="VwhprwL9eRUREX6yI_Sk-14">
          <mxGeometry relative="1" as="geometry" />
        </mxCell>
        <mxCell id="VwhprwL9eRUREX6yI_Sk-13" value="sum = sum of a" style="shape=process;whiteSpace=wrap;html=1;backgroundOutline=1;" vertex="1" parent="1">
          <mxGeometry x="40" y="820" width="120" height="60" as="geometry" />
        </mxCell>
        <mxCell id="VwhprwL9eRUREX6yI_Sk-26" style="edgeStyle=orthogonalEdgeStyle;rounded=0;orthogonalLoop=1;jettySize=auto;html=1;exitX=0.5;exitY=1;exitDx=0;exitDy=0;entryX=0.5;entryY=0;entryDx=0;entryDy=0;" edge="1" parent="1" source="VwhprwL9eRUREX6yI_Sk-14" target="VwhprwL9eRUREX6yI_Sk-15">
          <mxGeometry relative="1" as="geometry" />
        </mxCell>
        <mxCell id="VwhprwL9eRUREX6yI_Sk-14" value="i = n-1" style="rounded=0;whiteSpace=wrap;html=1;" vertex="1" parent="1">
          <mxGeometry x="40" y="920" width="120" height="60" as="geometry" />
        </mxCell>
        <mxCell id="VwhprwL9eRUREX6yI_Sk-18" value="y" style="edgeStyle=orthogonalEdgeStyle;rounded=0;orthogonalLoop=1;jettySize=auto;html=1;exitX=0.5;exitY=1;exitDx=0;exitDy=0;entryX=0.5;entryY=0;entryDx=0;entryDy=0;" edge="1" parent="1" source="VwhprwL9eRUREX6yI_Sk-15" target="VwhprwL9eRUREX6yI_Sk-16">
          <mxGeometry relative="1" as="geometry" />
        </mxCell>
        <mxCell id="VwhprwL9eRUREX6yI_Sk-23" style="edgeStyle=orthogonalEdgeStyle;rounded=0;orthogonalLoop=1;jettySize=auto;html=1;exitX=1;exitY=0.5;exitDx=0;exitDy=0;entryX=0.5;entryY=0;entryDx=0;entryDy=0;" edge="1" parent="1" source="VwhprwL9eRUREX6yI_Sk-15" target="VwhprwL9eRUREX6yI_Sk-21">
          <mxGeometry relative="1" as="geometry">
            <Array as="points">
              <mxPoint x="180" y="1060" />
              <mxPoint x="180" y="1300" />
              <mxPoint x="100" y="1300" />
            </Array>
          </mxGeometry>
        </mxCell>
        <mxCell id="VwhprwL9eRUREX6yI_Sk-24" value="n" style="edgeLabel;html=1;align=center;verticalAlign=middle;resizable=0;points=[];" vertex="1" connectable="0" parent="VwhprwL9eRUREX6yI_Sk-23">
          <mxGeometry x="-0.9526" relative="1" as="geometry">
            <mxPoint as="offset" />
          </mxGeometry>
        </mxCell>
        <mxCell id="VwhprwL9eRUREX6yI_Sk-15" value="sum &amp;gt;= x + a[i]?" style="rhombus;whiteSpace=wrap;html=1;" vertex="1" parent="1">
          <mxGeometry x="60" y="1020" width="80" height="80" as="geometry" />
        </mxCell>
        <mxCell id="VwhprwL9eRUREX6yI_Sk-19" style="edgeStyle=orthogonalEdgeStyle;rounded=0;orthogonalLoop=1;jettySize=auto;html=1;exitX=0.5;exitY=1;exitDx=0;exitDy=0;entryX=0.5;entryY=0;entryDx=0;entryDy=0;" edge="1" parent="1" source="VwhprwL9eRUREX6yI_Sk-16" target="VwhprwL9eRUREX6yI_Sk-17">
          <mxGeometry relative="1" as="geometry" />
        </mxCell>
        <mxCell id="VwhprwL9eRUREX6yI_Sk-16" value="sum -= a[i]" style="rounded=0;whiteSpace=wrap;html=1;" vertex="1" parent="1">
          <mxGeometry x="40" y="1120" width="120" height="60" as="geometry" />
        </mxCell>
        <mxCell id="VwhprwL9eRUREX6yI_Sk-20" style="edgeStyle=orthogonalEdgeStyle;rounded=0;orthogonalLoop=1;jettySize=auto;html=1;exitX=0;exitY=0.5;exitDx=0;exitDy=0;entryX=0;entryY=0.5;entryDx=0;entryDy=0;" edge="1" parent="1" source="VwhprwL9eRUREX6yI_Sk-17" target="VwhprwL9eRUREX6yI_Sk-15">
          <mxGeometry relative="1" as="geometry" />
        </mxCell>
        <mxCell id="VwhprwL9eRUREX6yI_Sk-17" value="i--" style="rounded=0;whiteSpace=wrap;html=1;" vertex="1" parent="1">
          <mxGeometry x="40" y="1220" width="120" height="60" as="geometry" />
        </mxCell>
        <mxCell id="VwhprwL9eRUREX6yI_Sk-25" style="edgeStyle=orthogonalEdgeStyle;rounded=0;orthogonalLoop=1;jettySize=auto;html=1;exitX=0.5;exitY=1;exitDx=0;exitDy=0;entryX=0.5;entryY=0;entryDx=0;entryDy=0;" edge="1" parent="1" source="VwhprwL9eRUREX6yI_Sk-21" target="VwhprwL9eRUREX6yI_Sk-22">
          <mxGeometry relative="1" as="geometry" />
        </mxCell>
        <mxCell id="VwhprwL9eRUREX6yI_Sk-21" value="print sum / (i+1)" style="shape=parallelogram;perimeter=parallelogramPerimeter;whiteSpace=wrap;html=1;fixedSize=1;" vertex="1" parent="1">
          <mxGeometry x="40" y="1320" width="120" height="60" as="geometry" />
        </mxCell>
        <mxCell id="VwhprwL9eRUREX6yI_Sk-22" value="End" style="ellipse;whiteSpace=wrap;html=1;" vertex="1" parent="1">
          <mxGeometry x="40" y="1420" width="120" height="80" as="geometry" />
        </mxCell>
        <mxCell id="VwhprwL9eRUREX6yI_Sk-33" style="edgeStyle=orthogonalEdgeStyle;rounded=0;orthogonalLoop=1;jettySize=auto;html=1;exitX=1;exitY=0.5;exitDx=0;exitDy=0;entryX=0.5;entryY=0;entryDx=0;entryDy=0;" edge="1" parent="1" source="VwhprwL9eRUREX6yI_Sk-5" target="VwhprwL9eRUREX6yI_Sk-11">
          <mxGeometry relative="1" as="geometry">
            <Array as="points">
              <mxPoint x="180" y="360" />
              <mxPoint x="180" y="600" />
              <mxPoint x="100" y="600" />
            </Array>
          </mxGeometry>
        </mxCell>
        <mxCell id="VwhprwL9eRUREX6yI_Sk-34" value="n" style="edgeLabel;html=1;align=center;verticalAlign=middle;resizable=0;points=[];" vertex="1" connectable="0" parent="VwhprwL9eRUREX6yI_Sk-33">
          <mxGeometry x="-0.9316" y="2" relative="1" as="geometry">
            <mxPoint as="offset" />
          </mxGeometry>
        </mxCell>
      </root>
    </mxGraphModel>
  </diagram>
</mxfile>
